<svg version="1.0" xmlns="http://www.w3.org/2000/svg" width="800.000000" height="800.000000" viewBox="0 0 800.000000 800.000000" preserveAspectRatio="xMidYMid meet">
  <metadata>
    <rdf:RDF xmlns:rdf="http://www.w3.org/1999/02/22-rdf-syntax-ns#" xmlns:rdfs="http://www.w3.org/2000/01/rdf-schema#" xmlns:dc="http://purl.org/dc/elements/1.1/">
      <rdf:Description dc:format="image/svg+xml" dc:Label="1" dc:ContentProducer="001191330110MACRLGPT8B00000" dc:ProduceID="461783623" dc:ReservedCode1="6ECUmlFSn1gIJ7J7vLeKvwKFWKGlN6qOcgRnuebaJSQ=" dc:ContentPropagator="001191330110MACRLGPT8B00000" dc:PropagateID="461783623" dc:ReservedCode2="6ECUmlFSn1gIJ7J7vLeKvwKFWKGlN6qOcgRnuebaJSQ="/>
    </rdf:RDF>
  </metadata>
  <g transform="translate(0.000000,800.000000) scale(0.100000,-0.100000)" fill="#000000" stroke="none">
    <path d="M3906 5795 c-32 -13 -75 -39 -94 -57 -133 -127 -99 -370 63 -448 l45 -22 0 -359 c0 -337 -1 -361 -20 -401 -11 -24 -52 -126 -91 -228 -80 -209 -220 -564 -223 -567 -1 -1 -64 47 -141 108 -141 111 -167 126 -204 114 -25 -8 -28 -10 -121 -129 -41 -52 -78 -95 -82 -96 -6 0 -86 102 -381 485 -13 18 -20 64 -32 226 -8 112 -15 213 -15 225 0 14 14 30 43 48 120 77 160 239 91 366 -86 158 -313 189 -442 61 -38 -38 -72 -101 -72 -131 0 -12 -4 -18 -10 -15 -6 4 -10 -12 -10 -39 0 -25 5 -46 10 -46 6 0 10 -10 10 -22 1 -69 83 -164 170 -198 40 -16 45 -21 47 -51 1 -19 7 -108 13 -199 11 -179 22 -330 45 -655 8 -115 22 -320 30 -455 9 -134 18 -246 20 -248 2 -2 37 2 79 9 l76 12 0 37 c0 35 -25 404 -34 515 -3 28 -8 102 -11 165 l-6 115 23 -26 c13 -14 81 -102 153 -194 71 -92 138 -173 149 -181 11 -8 36 -14 55 -14 38 0 71 30 178 163 31 37 59 67 65 67 5 0 77 -52 160 -115 222 -169 218 -170 335 126 46 118 114 291 150 384 37 94 70 174 73 178 4 4 23 -34 43 -85 20 -51 66 -169 102 -263 181 -465 176 -455 240 -455 31 0 84 36 248 168 43 34 84 62 90 61 7 0 48 -43 92 -95 44 -52 91 -104 104 -115 24 -19 65 -25 95 -13 15 6 189 222 287 355 19 27 39 52 44 56 8 8 4 -74 -20 -407 -33 -445 -46 -594 -50 -598 -2 -2 -48 7 -102 22 -852 223 -2360 132 -2716 -164 -50 -42 -77 -97 -77 -158 0 -152 205 -262 649 -351 250 -51 651 -82 1011 -80 717 4 1320 119 1512 289 116 102 97 241 -45 330 l-56 35 0 55 c-1 30 6 150 14 265 14 208 50 741 60 905 3 47 12 189 20 315 8 127 15 240 15 252 0 17 10 27 38 38 58 24 108 63 134 103 44 67 72 182 50 207 -5 6 -14 28 -20 50 -17 58 -73 119 -139 151 -50 23 -66 26 -132 22 -160 -10 -261 -115 -261 -273 0 -112 48 -192 142 -241 30 -15 30 -17 24 -77 -3 -34 -11 -136 -17 -227 l-12 -165 -196 -253 c-107 -139 -198 -251 -202 -250 -4 2 -44 48 -89 103 -45 55 -89 106 -98 113 -37 29 -66 14 -213 -103 -79 -63 -147 -111 -150 -107 -4 4 -59 142 -122 307 -64 165 -136 352 -161 415 l-46 115 0 356 0 355 33 16 c124 59 187 213 142 348 -24 72 -92 141 -168 169 -74 27 -118 26 -191 -4z m154 -162 c52 -36 68 -84 45 -138 -15 -36 -66 -75 -100 -75 -33 0 -84 38 -102 75 -46 95 71 198 157 138z m-1511 -606 c59 -30 81 -110 46 -163 -42 -65 -146 -65 -186 -1 -61 97 40 216 140 164z m2999 2 c52 -18 85 -95 61 -141 -44 -86 -116 -99 -186 -35 -49 44 -37 132 21 168 35 22 60 24 104 8z m-1123 -2149 c219 -14 368 -33 552 -71 238 -49 419 -114 468 -169 l20 -22 -36 -33 c-107 -98 -606 -207 -1054 -230 -280 -14 -350 -15 -592 -5 -371 15 -635 48 -886 111 -188 47 -326 106 -341 145 -26 68 244 166 639 233 152 26 384 44 659 50 320 6 313 7 571 -9z"/>
  </g>
</svg>